<?xml version="1.0" encoding="UTF-8"?>
<!DOCTYPE svg PUBLIC "-//W3C//DTD SVG 1.1//EN" "http://www.w3.org/Graphics/SVG/1.1/DTD/svg11.dtd">
<!-- Creator: CorelDRAW X8 -->
<svg xmlns="http://www.w3.org/2000/svg" xml:space="preserve" width="2410px" height="2410px" version="1.1" style="shape-rendering:geometricPrecision; text-rendering:geometricPrecision; image-rendering:optimizeQuality; fill-rule:evenodd; clip-rule:evenodd"
viewBox="0 0 605 605"
 xmlns:xlink="http://www.w3.org/1999/xlink">
 <defs>
  <style type="text/css">
   <![CDATA[
    .str0 {stroke:#00AFEF;stroke-width:0.522635}
    .str1 {stroke:#ECECEE;stroke-width:0.225764}
    .str2 {stroke:#EEEEEE;stroke-width:0.225764}
    .fil8 {fill:#0779B6}
    .fil1 {fill:#0892DB}
    .fil9 {fill:#332C2B}
    .fil13 {fill:#3C2223}
    .fil14 {fill:#504041}
    .fil12 {fill:#522927}
    .fil11 {fill:#5F5D5D}
    .fil15 {fill:#855845}
    .fil17 {fill:#8D3D32}
    .fil7 {fill:#A1AAAA}
    .fil16 {fill:#A5ADAC}
    .fil10 {fill:#CF292E}
    .fil0 {fill:#CFCECE}
    .fil5 {fill:#DAD9D5}
    .fil6 {fill:#DCDEDE}
    .fil2 {fill:#ECECEE}
    .fil18 {fill:#EDECED}
    .fil3 {fill:#EEEEEE}
    .fil4 {fill:#FDF501}
   ]]>
  </style>
 </defs>
 <g id="Layer_x0020_1">
  <metadata id="CorelCorpID_0Corel-Layer"/>
  <circle class="fil0" cx="302" cy="302" r="302"/>
  <circle class="fil1 str0" cx="302" cy="302" r="229"/>
  <path class="fil2 str1" d="M96 439c-2,1 -4,3 -7,5 -8,5 -15,12 -22,1 -4,-7 -1,-11 4,-15 3,-1 12,-8 14,-8 1,2 3,3 3,5 -6,5 -20,10 -16,16 3,5 14,-6 21,-9l3 5zm-44 -65c5,-1 10,3 11,8 1,5 -3,10 -7,11 -12,2 -16,-16 -4,-19zm2 -45l-27 2 0 -7 21 -1 -1 -11 5 1 2 16zm-28 -37l4 1 0 9 7 0 0 -8 4 0 0 8c2,0 5,1 7,0l0 -10 5 0 -1 17 -26 -1 0 -16zm3 -32l26 2c1,1 0,4 0,6l-20 -2 16 6c0,2 0,5 -1,6 -3,2 -13,1 -17,2 4,1 16,2 20,4l-1 5 -26 -5 1 -8 18 -2c-4,-1 -13,-5 -17,-6l1 -8zm1 -8c1,-4 2,-12 5,-15 3,-5 9,-3 10,3 2,-2 3,-4 7,-4 12,1 5,20 4,22l-26 -6zm10 -38l28 1 -2 6c-1,0 -2,0 -3,0 0,0 -1,0 -2,0 0,0 0,0 0,0l-1 0 -2 7 4 4c0,1 -1,4 -2,5 -7,-4 -16,-11 -22,-16l2 -7zm35 -20c1,13 -8,21 -20,15 -14,-7 -7,-23 0,-24l1 4c0,0 -10,7 1,13 5,3 13,5 13,-4l-6 -2 -1 3c-2,-1 -3,-1 -4,-2l4 -9c1,1 11,5 12,6zm-13 -28l27 7 -3 5 -6 -1c-1,1 -3,4 -4,6 1,2 3,3 4,5l-3 5 -1 -1c-1,-1 -1,-1 -2,-2l-14 -15c-1,-1 -1,-1 -2,-2l4 -7zm438 -17c3,-1 24,-8 27,-9 1,3 3,4 4,7 -3,3 -16,20 -18,21l-3 -5c0,-1 2,-3 3,-4 0,-2 -3,-5 -4,-7l-6 2 -3 -5zm-421 -10c1,-2 5,-7 6,-9 9,-9 17,0 17,5 0,5 -3,7 -5,10 2,1 6,4 7,5 -1,2 -3,4 -4,5l-10 -8c-3,-2 -9,-7 -11,-8zm402 -12c3,-2 21,-15 22,-16 2,3 4,4 5,7 -3,4 -8,9 -11,14 4,-2 13,-8 16,-9 2,3 4,4 5,6 -1,2 -18,18 -19,19 -1,-1 -3,-3 -4,-4l14 -14 -15 8c-1,-2 -3,-3 -4,-5l11 -14c-1,1 -14,12 -16,13 -1,-2 -3,-3 -4,-5zm-385 -8c1,-2 10,-12 11,-12 1,1 2,2 3,3 -2,2 -6,6 -7,7 2,2 3,4 5,4l5 -5c2,0 3,1 3,3 -1,2 -4,3 -5,6l5 4 7 -7 3 3c0,1 -10,12 -12,12 -1,-2 -2,-3 -4,-5l-14 -13zm48 -10c-3,-2 -11,-13 -13,-14l8 15c-1,1 -4,3 -5,4 -3,-2 -11,-9 -14,-10 4,4 9,10 12,15 -1,2 -2,2 -4,4l-16 -22c1,-1 5,-4 6,-5 3,2 11,9 15,11l-9 -16c1,-1 5,-4 6,-5 2,1 8,8 10,9 1,2 8,8 9,10 -1,1 -4,3 -5,4zm309 -6c0,-2 6,-9 8,-11 2,-3 5,-7 8,-10l13 10c-1,1 -2,2 -3,3 -3,-2 -5,-5 -8,-6 -1,1 -3,4 -4,5 2,1 5,4 7,5 -1,2 -2,2 -3,3 -2,-1 -4,-3 -6,-4 -1,0 -4,4 -5,5 2,1 7,5 8,6 -1,2 -2,3 -3,4 -1,-1 -4,-4 -6,-5 -2,-2 -4,-4 -6,-5zm-7 -37c3,2 10,7 11,9 4,5 3,9 0,14 -2,4 -6,8 -13,7 -3,-1 -11,-6 -12,-7l14 -23zm-309 14c5,-3 14,-11 19,-5 2,2 1,4 0,7 11,-2 11,7 8,11 -1,2 -9,8 -12,9 -1,-1 -2,-3 -4,-5l-11 -17zm22 -15c2,0 3,-2 5,-2 2,3 5,8 7,11 1,3 5,9 6,12 -2,1 -3,2 -5,3 -2,-4 -5,-8 -7,-12 -1,-3 -5,-9 -6,-12zm250 11c1,-1 1,-1 2,-2 1,-1 2,-2 3,-3 1,-2 3,-3 4,-5 2,-2 4,-3 5,-5 2,-1 4,-4 5,-5l7 3 -5 28c-2,-1 -4,-2 -6,-3l1 -6c-1,-1 -4,-3 -7,-3 0,1 -1,1 -2,2 0,1 0,1 -1,2l-6 -3zm-21 -37c3,1 8,3 11,4 10,5 5,14 0,16 -4,2 -7,0 -11,-1l-3 8c-1,0 -4,-1 -6,-2l9 -25zm-195 38c-2,-1 -3,-1 -4,-3l-12 -11c2,4 9,14 10,18l-5 2 -13 -23 7 -4 16 14c-1,-3 -9,-14 -9,-17l5 -3 12 24 -7 3zm219 -29l6 3c-1,3 -4,8 -5,12 -2,4 -4,9 -6,12l-6 -2 11 -25zm-181 -13c2,4 5,8 8,12 2,3 6,8 7,12l-6 1 -3 -5 -8 3 1 5 -12 4c-1,-1 -3,-4 -3,-5l-8 3 1 6c-1,1 -4,2 -6,2l-2 -27c1,-2 4,-3 7,-3 3,3 15,19 16,20l1 -26 7 -2zm69 -10c18,-4 20,24 7,28 -9,2 -15,-3 -16,-10 -1,-9 2,-16 9,-18zm57 6l7 2 1 18c2,-5 5,-13 7,-17l8 2c0,4 -3,21 -4,27l-6 -2 3 -19 -7 15 -6 -1 0 -17c-1,2 -2,7 -3,9 0,4 -1,7 -2,10l-6 -1 8 -26zm-18 24c0,-3 2,-13 2,-16 1,-3 1,-6 2,-9 0,-2 0,-1 2,-1 1,0 3,0 4,1l-4 26c-2,0 -4,0 -6,-1zm-78 1c-1,-2 -9,-16 -11,-18 1,4 4,16 4,19l-6 1 -4 -26 8 -2c3,6 7,13 11,19 -1,-6 -4,-14 -4,-20l5 -1 5 27 -8 1zm58 -3c-1,-4 2,-21 2,-27l6 1c1,3 -1,17 -1,22l10 0 -1 5 -16 -1zm-256 410c-1,-2 0,0 0,-1 5,0 13,-1 16,0 0,-2 -1,-3 -2,-4 1,-2 20,-15 21,-16 2,2 4,5 5,7 -3,5 -9,11 -11,17l7 -6c1,-1 6,-4 7,-6 1,1 1,1 2,1 -1,-2 0,0 0,-1l17 0c2,0 4,-1 6,1l-7 -9c-2,-3 -4,-5 -6,-8 -5,-6 -8,-12 -12,-18 -8,-13 -14,-26 -19,-41 -12,-31 -16,-69 -12,-105 6,-45 22,-82 48,-115 7,-8 11,-13 18,-19 1,-2 2,-3 4,-4 11,-10 20,-18 34,-26 5,-4 12,-8 18,-11 15,-7 27,-12 43,-17 33,-10 72,-11 107,-4 37,7 79,27 105,51l8 7c9,9 20,21 28,32 1,2 2,3 3,4 1,-1 9,0 12,0 4,0 8,0 12,0 1,3 0,1 1,2 1,-2 0,-1 1,-2l4 -2c3,-2 12,-7 14,-8l-3 -6c1,-1 3,-2 4,-2 2,-1 5,-1 7,-1 1,0 2,0 4,0 2,0 1,0 3,1 -2,-4 -5,-8 -7,-12 -9,-12 -20,-27 -31,-38l-26 -24c-26,-23 -61,-42 -101,-55 -87,-25 -173,-7 -237,34 -15,9 -25,16 -37,27 -11,9 -22,22 -32,33 -3,3 -5,7 -8,10 -49,63 -68,149 -52,231 6,27 17,57 30,80 1,3 11,20 13,23l1 0z"/>
  <path class="fil3 str2" d="M324 574c-5,2 -10,4 -16,2 -4,-2 -6,-7 -6,-13 -1,-16 16,-17 21,-11 0,1 0,0 -1,1l-2 2c-2,-1 -5,-3 -8,-1 -6,3 -5,23 6,17l0 -6 -4 0 0 -4 10 0 0 13zm-40 2c-1,-2 0,-23 0,-27l17 1 -1 4 -10 0 0 6 8 0 0 5 -8 0 0 6 10 1 0 4 -16 0zm-23 -30l8 1c1,1 5,21 5,21 1,-7 1,-13 2,-20l6 1c0,2 -3,22 -3,27l-9 -2c0,-1 -3,-18 -4,-19 -1,5 -1,13 -3,19l-5 -1 3 -27zm80 1l0 4 -1 0c-2,1 -6,1 -8,1 0,2 0,2 0,4 0,1 0,2 1,3l8 -1 0 4 -8 1 1 6c0,0 0,1 0,1 3,0 7,-2 10,-1l1 4c-3,1 -14,2 -17,2l-3 -26 16 -2zm2 0c6,-2 20,-7 21,5 0,4 -2,4 -3,6 1,3 7,7 8,10l-7 2c-1,-2 -2,-4 -3,-5 -2,-2 -3,-2 -4,-4l-2 0 2 11 -6 1c-1,-4 -6,-24 -6,-26zm-122 11c2,1 3,3 6,4 3,0 6,0 5,-4 0,-3 -7,-5 -9,-9 -2,-5 2,-10 7,-10 6,0 11,3 12,6 -1,1 -2,2 -3,3 -2,-2 -4,-5 -9,-4 -5,6 15,8 8,19 -2,3 -6,5 -11,3 -5,-1 -8,-3 -9,-6l1 -2c1,0 1,0 2,0zm150 -18l7 26 -6 1 -7 -25 6 -2zm-176 15c0,-2 6,-10 8,-12 2,-2 3,-3 4,-5 2,-2 3,-4 5,-6l7 3 -2 28 -6 -2c-1,-2 0,-4 0,-6l-7 -3 -3 5 -6 -2zm204 -3c7,1 12,-2 9,-6 -2,-3 -10,1 -14,-3 -8,-6 2,-17 14,-14 0,2 -1,3 -2,5 -8,-2 -10,4 -6,5 5,1 10,-2 14,4 5,7 -4,17 -17,13l2 -4zm-191 -21c-1,1 -2,3 -3,4l-6 -3 -9 20 -6 -2 9 -20 -2 -1c0,0 -1,-1 -1,-1 -1,0 -2,-1 -3,-1l2 -5 19 9zm215 -13c1,1 1,3 1,5l-8 4 3 6 7 -4c1,1 2,2 2,4l-7 4 3 6c3,-1 6,-4 9,-5l2 4 -14 7 -13 -23 15 -8zm-253 24c0,-1 10,-20 12,-23l0 0c2,0 5,2 6,2l-13 24 -5 -3zm-15 -16c2,2 1,3 4,5 2,2 6,2 6,-1 2,-3 -5,-7 -6,-12 -1,-12 18,-9 20,2l-4 1c-1,-3 -6,-8 -9,-4 0,3 4,6 5,9 2,5 0,9 -3,11 -7,4 -16,-5 -17,-10l4 -1zm-23 -9c3,-5 12,-16 15,-22 2,1 5,4 7,5 5,3 9,8 4,14 -3,4 -6,2 -8,3 -1,2 -1,10 -1,12 -2,0 -4,-2 -5,-3 -1,-7 3,-11 -1,-13 -1,0 -2,2 -3,4 -1,1 -2,3 -3,4l-5 -4zm321 -2c2,2 7,9 8,11 -2,1 -3,2 -5,3l-12 -16 6 17 -4 2c-3,-1 -10,-10 -13,-11 3,5 7,11 10,17l-5 3c-3,-6 -12,-20 -13,-24 3,-1 4,-3 7,-4l13 12 -7 -17c3,0 4,-3 7,-3 1,2 6,8 8,10zm-1 -16c1,-1 4,-4 6,-4l17 12c1,0 2,1 3,2l2 2c-1,1 -3,3 -5,4 -2,-1 -3,-3 -5,-4 -1,2 -3,3 -5,5 0,2 1,3 2,5 -2,2 -4,3 -5,4l-10 -26zm-318 -15c1,0 11,9 12,11 -1,0 -2,1 -3,2 -2,-2 -6,-4 -7,-6 -2,1 -3,3 -4,5 2,2 4,3 6,5 -1,2 -2,3 -3,3 -2,-1 -5,-4 -7,-5 -1,3 -3,4 -4,5 2,2 6,5 8,7 -2,2 -2,2 -3,3 -2,-1 -3,-1 -4,-2 -1,-2 -1,-2 -3,-3 -1,-1 -2,-2 -3,-3 -1,-1 -2,-2 -3,-2l18 -20zm359 15c-7,0 -10,-5 -13,-1l7 7c-2,2 -3,3 -5,4 -2,-1 -17,-18 -18,-19 2,-2 3,-3 5,-6 5,-4 10,-6 15,-1 3,2 2,4 1,8l12 3c-2,-4 -12,-18 -14,-22 1,-3 3,-4 4,-6 2,0 24,10 26,11 -1,2 -3,4 -4,5l-6 -2c-1,1 -3,4 -4,5 0,2 2,4 3,5 -4,5 -6,5 -9,9zm-376 -33c1,1 2,3 4,4 0,4 -10,15 -11,19l18 -11c2,2 4,3 5,5 -4,2 -8,4 -13,6 -2,2 -10,6 -12,7l-5 -6 14 -24zm-5 -5c2,0 3,3 4,4 -1,2 -3,3 -5,5 -2,2 -14,12 -15,13 -1,-2 -3,-4 -4,-5l20 -17zm391 -1c1,1 5,4 8,5 2,2 5,4 7,6 -1,1 -2,3 -3,4l-21 -16c0,-1 3,-5 4,-6l21 6c-3,-1 -14,-10 -16,-12 0,-1 2,-3 3,-4 2,1 20,15 21,17 -1,1 -3,4 -5,6l-19 -6zm36 -24c0,9 -7,22 -21,13 -13,-8 -6,-22 3,-24l0 4c-2,2 -4,2 -5,6 0,4 2,6 4,7 7,6 14,5 13,-2l-5 -3 -2 3 -4 -2 6 -9c2,1 9,6 11,7zm9 -62c12,-2 16,16 4,19 -6,1 -10,-3 -11,-8 -1,-5 2,-10 7,-11zm4 -87c3,-1 25,-1 27,-1l0 6 -12 1c1,2 10,7 12,8l0 7c-2,-1 -9,-7 -12,-8 -2,0 -11,6 -14,8 2,2 22,9 25,10l0 8 -28 6 1 -7 6 -1 0 -7c-1,-1 -3,-2 -5,-2l0 -14 14 -8 -14 0 0 -6zm26 -14l0 6 -27 2 0 -6 27 -2zm-6 -5l-1 -6c-6,0 -16,4 -22,3 0,-2 -1,-5 0,-6l21 -4c0,-1 0,0 -1,-3 0,-1 0,-2 0,-3l5 -1 3 20 -5 0zm-25 -93c1,0 8,13 8,14l-4 2 -5 -9 -5 3 3 7c-1,2 -2,2 -3,3l-4 -7c-2,0 -5,1 -6,3l4 9 -4 1 -7 -14 23 -12zm-31 -1c-1,-1 0,1 -1,-2 -4,0 -8,0 -12,0 -3,0 -11,-1 -12,0 1,2 2,3 3,5l8 13c27,47 35,103 25,157 -6,31 -18,56 -32,79 -3,5 -7,11 -11,16 -7,8 -9,11 -16,18 -6,7 -10,10 -17,17 -3,2 -5,4 -8,6 -67,53 -169,66 -252,20 -20,-12 -31,-20 -47,-35 -2,-2 -4,-4 -7,-7 -1,-1 -2,-2 -3,-3 -2,-2 -2,-3 -3,-3 -2,-2 -4,-1 -6,-1l-17 0c0,1 -1,-1 0,1 0,2 1,2 2,4l-5 4c-3,2 -15,11 -17,11 -1,-2 -3,-4 -4,-6l12 -18c-2,2 -14,11 -17,12 -3,-1 -11,0 -16,0 0,1 -1,-1 0,1 0,2 11,17 13,19 7,8 15,17 23,25 7,7 17,17 25,23 24,18 49,33 83,45 72,25 149,20 214,-10 16,-6 29,-14 42,-22 13,-9 32,-25 44,-36 2,-3 5,-6 7,-9 3,-2 5,-5 8,-8 2,-3 5,-6 7,-9 43,-55 66,-122 62,-194 -1,-12 -5,-45 -9,-55 -1,-2 -1,-1 -4,-1l-24 0 2 1c0,0 0,0 0,0l14 1c1,2 2,5 2,8l-24 13c-1,-1 -2,-4 -2,-6l5 -3 -1 -7 -6 -1 -2 -6c-2,0 0,0 -1,-1l-1 -6c3,0 6,-2 9,-3 1,0 2,-1 4,-1 2,-1 3,-1 4,-2 -3,0 -14,2 -16,1l-2 -6c2,-1 5,-3 7,-4 2,-1 6,-3 7,-4 -5,1 -12,4 -18,5l-2 -6 25 -6 1 0c0,0 0,0 0,0l2 0c2,0 3,0 4,0 5,0 5,0 6,-2 0,-4 -19,-41 -21,-42 -2,-1 -1,-1 -3,-1 -2,0 -3,0 -4,0 -2,0 -5,0 -7,1 1,4 9,14 10,17l-5 2 -3 -6c-3,1 -7,4 -9,6 -3,1 -8,4 -10,5l-3 -4z"/>
  <path class="fil4" d="M492 229c-1,0 0,0 -1,-1l-1 -3c-1,-5 -8,-25 -10,-27 1,4 -2,16 -3,20 -5,21 -14,30 -37,33 -28,3 -70,-4 -88,5 -10,5 -17,14 -22,24 -8,16 -8,20 -10,38 -1,14 0,30 1,45 0,10 -1,12 5,18 4,3 10,6 16,7 1,-14 4,-25 15,-28 3,-1 6,-2 10,-1 4,0 5,0 9,2 29,10 63,15 90,1 5,-3 10,-6 13,-9 11,-14 17,-27 20,-46 2,-20 1,-40 -3,-60 -1,-3 -4,-16 -4,-18z"/>
  <path class="fil4" d="M260 389c9,0 19,-9 21,-14 0,-2 0,-8 0,-11 1,-11 2,-57 -2,-67 -2,-5 -4,-11 -6,-16 -16,-30 -34,-30 -64,-29 -15,0 -31,1 -46,-1 -16,-1 -25,-5 -31,-15 -6,-9 -9,-24 -10,-37 -2,2 -7,16 -7,18 -6,18 -12,41 -12,61 -2,31 4,58 21,76 5,6 21,13 32,15 22,5 44,1 64,-6 8,-2 11,-5 21,-4 14,2 18,14 19,30z"/>
  <path class="fil5" d="M324 149c2,19 19,34 40,32 19,-2 34,-19 32,-40 -2,-19 -19,-35 -41,-32 -18,2 -34,19 -31,40z"/>
  <path class="fil6" d="M210 425l0 2c6,-1 13,-2 19,-3 21,-3 44,-5 65,-3 2,-2 4,-2 5,-4 -2,-4 -4,-7 -7,-9 -2,-2 -6,-7 -9,-7 -6,-2 -25,-1 -32,0 -10,1 -19,2 -28,4 -3,1 -3,2 -4,4 -4,6 -5,10 -9,16z"/>
  <path class="fil7" d="M266 125c2,11 12,21 25,19 11,-1 21,-12 19,-25 -1,-11 -12,-21 -25,-19 -11,1 -21,12 -19,25z"/>
  <path class="fil6" d="M307 417c1,2 3,3 5,4 12,-2 30,-2 43,-2 15,0 27,2 41,4l0 -2 -7 -10c-3,-5 -4,-7 -7,-8 -16,-3 -29,-4 -45,-3 -14,0 -17,-2 -27,12 -1,2 -2,3 -3,5z"/>
  <path class="fil8" d="M130 153c1,-2 6,-7 8,-9 3,-3 12,-12 16,-15 1,-1 3,-2 4,-4 40,-32 91,-51 145,-51 54,0 110,21 149,56 4,4 22,20 23,24 0,0 0,0 0,0l16 20c2,3 13,20 13,23l8 15c2,5 4,10 6,15 7,25 11,36 12,63 3,53 -13,103 -42,145l-13 16 -13 15c-3,3 -7,5 -10,9 -5,4 -16,12 -22,16 -51,35 -118,49 -180,33 -42,-10 -72,-27 -102,-54 -1,-1 -1,-1 -2,-2 -2,-1 -3,-3 -5,-4 -2,-2 -3,-3 -5,-5 -21,-24 -34,-43 -47,-76 -28,-72 -16,-158 33,-220 2,-3 5,-7 8,-10zm1 302c1,0 1,1 3,3 1,1 2,2 3,3 3,3 5,5 7,7 16,15 27,23 47,35 83,46 185,33 252,-20 3,-2 5,-4 8,-6 7,-7 11,-10 17,-17 7,-7 9,-10 16,-18 4,-5 8,-11 11,-16 14,-23 26,-48 32,-79 10,-54 2,-110 -25,-157l-8 -13c-1,-2 -2,-3 -3,-5 -1,-1 -2,-2 -3,-4 -8,-11 -19,-23 -28,-32l-8 -7c-26,-24 -68,-44 -105,-51 -35,-7 -74,-6 -107,4 -16,5 -28,10 -43,17 -6,3 -13,7 -18,11 -14,8 -23,16 -34,26 -2,1 -3,2 -4,4 -7,6 -11,11 -18,19 -26,33 -42,70 -48,115 -4,36 0,74 12,105 5,15 11,28 19,41 4,6 7,12 12,18 2,3 4,5 6,8l7 9z"/>
  <path class="fil9" d="M297 358c0,2 1,15 0,17 4,-3 4,-2 8,0 -1,-5 1,-28 1,-35 0,-12 1,-24 1,-35 1,-24 2,-47 2,-70 0,0 0,2 -1,3 -1,3 -4,7 -7,6 -6,-3 -5,-12 -5,-14l-1 8c1,39 2,81 2,120z"/>
  <path class="fil1" d="M317 177c-9,2 -15,10 -15,21 1,9 8,18 18,17 9,-1 15,-11 15,-21 -1,-9 -8,-18 -18,-17z"/>
  <path class="fil9" d="M338 492l6 0c0,-7 1,-13 1,-19 1,-6 1,-14 1,-20l10 34 6 0 10 -33 3 38 6 0 -4 -46 -8 0 -9 33 -10 -33 -8 0 -4 46z"/>
  <path class="fil1" d="M299 473c1,9 6,17 16,14 8,-2 10,-12 9,-22 -1,-9 -6,-17 -16,-14 -8,3 -10,13 -9,22z"/>
  <path class="fil1" d="M480 198c2,2 9,22 10,27l1 3c1,1 0,1 1,1 0,-1 0,0 0,-1l0 -1c0,0 0,0 0,0l26 0c-2,-5 -4,-10 -6,-15l-8 -15c0,2 -1,1 -5,1l-17 0c-2,0 0,-1 -2,0z"/>
  <path class="fil10" d="M472 489c1,-2 5,-5 7,-2 3,3 0,7 -3,7l-4 -5zm24 -8l-7 -9c2,1 9,4 10,6 -1,1 -1,2 -3,3zm-13 -9c2,4 12,18 14,22l-12 -3c1,-4 2,-6 -1,-8 -5,-5 -10,-3 -15,1 -2,3 -3,4 -5,6 1,1 16,18 18,19 2,-1 3,-2 5,-4l-7 -7c3,-4 6,1 13,1 3,-4 5,-4 9,-9 -1,-1 -3,-3 -3,-5 1,-1 3,-4 4,-5l6 2c1,-1 3,-3 4,-5 -2,-1 -24,-11 -26,-11 -1,2 -3,3 -4,6z"/>
  <path class="fil9" d="M299 473c-1,-9 1,-19 9,-22 10,-3 15,5 16,14 1,10 -1,20 -9,22 -10,3 -15,-5 -16,-14zm9 -27c-12,2 -17,13 -16,27 2,12 9,22 23,19 23,-4 21,-52 -7,-46z"/>
  <path class="fil11" d="M562 324l0 -6 11 4 -11 2zm-10 -37l0 6 14 0 -14 8 0 14c2,0 4,1 5,2l0 7 -6 1 -1 7 28 -6 0 -8c-3,-1 -23,-8 -25,-10 3,-2 12,-8 14,-8 3,1 10,7 12,8l0 -7c-2,-1 -11,-6 -12,-8l12 -1 0 -6c-2,0 -24,0 -27,1z"/>
  <path class="fil11" d="M205 49c1,2 6,8 7,9l-6 2 -1 -11zm24 -8l5 10 -5 2 0 -12zm-5 -4l-1 26c-1,-1 -13,-17 -16,-20 -3,0 -6,1 -7,3l2 27c2,0 5,-1 6,-2l-1 -6 8 -3c0,1 2,4 3,5l12 -4 -1 -5 8 -3 3 5 6 -1c-1,-4 -5,-9 -7,-12 -3,-4 -6,-8 -8,-12l-7 2z"/>
  <path class="fil2 str2" d="M558 198c2,0 1,-1 2,1l2 6 -16 10 18 -2 2 7 -25 10c1,1 -1,1 1,1l14 1c0,0 0,0 0,0l-2 -1 24 0c3,0 3,-1 4,1 -1,-6 -3,-14 -5,-19 -1,-3 -2,-6 -3,-9 -1,-2 -2,-6 -3,-8 -1,2 -1,2 -6,2 -1,0 -2,0 -4,0l-2 0c0,0 0,0 0,0l-1 0z"/>
  <path class="fil9" d="M285 185c8,-2 13,4 14,11 1,7 -3,14 -9,15 -16,4 -20,-23 -5,-26zm32 -8c10,-1 17,8 18,17 0,10 -6,20 -15,21 -10,1 -17,-8 -18,-17 0,-11 6,-19 15,-21zm-17 12c-2,-2 -2,-4 -7,-6 -10,-5 -21,3 -21,16 1,13 13,19 23,14 3,-3 4,-4 6,-8 2,4 3,7 8,10 4,3 9,4 15,2 19,-6 18,-39 -2,-43 -12,-2 -19,7 -22,15z"/>
  <path class="fil9" d="M263 451c9,0 17,0 17,10 0,9 -8,10 -17,9l0 -19zm-6 41l6 0 0 -17c7,0 12,1 18,-3 4,-2 6,-7 5,-14 -1,-13 -17,-13 -29,-12l0 46z"/>
  <path class="fil12" d="M312 421c-1,2 -1,4 -1,6l-16 0c0,-1 0,-2 0,-3 0,-1 0,-1 0,-2 -1,-1 0,0 -1,-1 -21,-2 -44,0 -65,3 -6,1 -13,2 -19,3l0 -2 -3 0 -2 4 89 -7 0 6 18 0 0 -6 89 3 -2 -4 -3 0 0 2c-14,-2 -26,-4 -41,-4 -13,0 -31,0 -43,2z"/>
  <path class="fil1" d="M285 185c-15,3 -11,30 5,26 6,-1 10,-8 9,-15 -1,-7 -6,-13 -14,-11z"/>
  <path class="fil11" d="M349 57l6 1c1,-3 2,-6 2,-10 1,-2 2,-7 3,-9l0 17 6 1 7 -15 -3 19 6 2c1,-6 4,-23 4,-27l-8 -2c-2,4 -5,12 -7,17l-1 -18 -7 -2 -8 26z"/>
  <path class="fil11" d="M481 127c1,2 3,3 4,5 2,-1 15,-12 16,-13l-11 14c1,2 3,3 4,5l15 -8 -14 14c1,1 3,3 4,4 1,-1 18,-17 19,-19 -1,-2 -3,-3 -5,-6 -3,1 -12,7 -16,9 3,-5 8,-10 11,-14 -1,-3 -3,-4 -5,-7 -1,1 -19,14 -22,16z"/>
  <path class="fil11" d="M541 230l25 -10 -2 -7 -18 2 16 -10 -2 -6c-1,-2 0,-1 -2,-1l-25 6 2 6c6,-1 13,-4 18,-5 -1,1 -5,3 -7,4 -2,1 -5,3 -7,4l2 6c2,1 13,-1 16,-1 -1,1 -2,1 -4,2 -2,0 -3,1 -4,1 -3,1 -6,3 -9,3l1 6z"/>
  <path class="fil11" d="M28 268c4,1 13,5 17,6l-18 2 -1 8 26 5 1 -5c-4,-2 -16,-3 -20,-4 4,-1 14,0 17,-2 1,-1 1,-4 1,-6l-16 -6 20 2c0,-2 1,-5 0,-6l-26 -2 -1 8z"/>
  <path class="fil10" d="M438 508l7 17 -13 -12c-3,1 -4,3 -7,4 1,4 10,18 13,24l5 -3c-3,-6 -7,-12 -10,-17 3,1 10,10 13,11l4 -2 -6 -17 12 16c2,-1 3,-2 5,-3 -1,-2 -6,-9 -8,-11 -2,-2 -7,-8 -8,-10 -3,0 -4,3 -7,3z"/>
  <path class="fil11" d="M124 91l9 16c-4,-2 -12,-9 -15,-11 -1,1 -5,4 -6,5l16 22c2,-2 3,-2 4,-4 -3,-5 -8,-11 -12,-15 3,1 11,8 14,10 1,-1 4,-3 5,-4l-8 -15c2,1 10,12 13,14 1,-1 4,-3 5,-4 -1,-2 -8,-8 -9,-10 -2,-1 -8,-8 -10,-9 -1,1 -5,4 -6,5z"/>
  <path class="fil10" d="M258 573l5 1c2,-6 2,-14 3,-19 1,1 4,18 4,19l9 2c0,-5 3,-25 3,-27l-6 -1c-1,7 -1,13 -2,20 0,0 -4,-20 -5,-21l-8 -1 -3 27z"/>
  <path class="fil10" d="M79 462c3,-1 15,-10 17,-12l-12 18c1,2 3,4 4,6 2,0 14,-9 17,-11l5 -4c-1,-2 -2,-2 -2,-4 -1,0 -1,0 -2,-1 -1,2 -6,5 -7,6l-7 6c2,-6 8,-12 11,-17 -1,-2 -3,-5 -5,-7 -1,1 -20,14 -21,16 1,1 2,2 2,4z"/>
  <path class="fil10" d="M503 447c2,2 13,11 16,12l-21 -6c-1,1 -4,5 -4,6l21 16c1,-1 2,-3 3,-4 -2,-2 -5,-4 -7,-6 -3,-1 -7,-4 -8,-5l19 6c2,-2 4,-5 5,-6 -1,-2 -19,-16 -21,-17 -1,1 -3,3 -3,4z"/>
  <path class="fil11" d="M183 53c0,3 8,14 9,17l-16 -14 -7 4 13 23 5 -2c-1,-4 -8,-14 -10,-18l12 11c1,2 2,2 4,3l7 -3 -12 -24 -5 3z"/>
  <path class="fil11" d="M259 29c0,6 3,14 4,20 -4,-6 -8,-13 -11,-19l-8 2 4 26 6 -1c0,-3 -3,-15 -4,-19 2,2 10,16 11,18l8 -1 -5 -27 -5 1z"/>
  <path class="fil11" d="M46 249c1,-3 1,-7 5,-6 4,0 3,5 2,8l-7 -2zm-10 -2c0,-3 1,-6 4,-6 4,1 3,4 2,7l-6 -1zm-6 5l26 6c1,-2 8,-21 -4,-22 -4,0 -5,2 -7,4 -1,-6 -7,-8 -10,-3 -3,3 -4,11 -5,15z"/>
  <path class="fil11" d="M151 89c2,-2 6,-4 8,-1 2,3 -2,6 -4,7 -2,-1 -4,-4 -4,-6zm-6 -8c1,-2 5,-4 6,-2 3,4 -1,5 -3,7 -1,-1 -3,-4 -3,-5zm-8 -1l11 17c2,2 3,4 4,5 3,-1 11,-7 12,-9 3,-4 3,-13 -8,-11 1,-3 2,-5 0,-7 -5,-6 -14,2 -19,5z"/>
  <path class="fil10" d="M350 550c4,-1 7,-2 7,2 1,4 -2,5 -6,5l-1 -7zm-7 -3c0,2 5,22 6,26l6 -1 -2 -11 2 0c1,2 2,2 4,4 1,1 2,3 3,5l7 -2c-1,-3 -7,-7 -8,-10 1,-2 3,-2 3,-6 -1,-12 -15,-7 -21,-5z"/>
  <path class="fil11" d="M298 42c-1,-16 10,-16 11,-5 1,15 -10,15 -11,5zm2 -17c-7,2 -10,9 -9,18 1,7 7,12 16,10 13,-4 11,-32 -7,-28z"/>
  <path class="fil10" d="M145 509c1,-2 4,-5 5,-6 2,1 6,3 3,7 -2,3 -5,1 -8,-1zm-13 8l5 4c1,-1 2,-3 3,-4 1,-2 2,-4 3,-4 4,2 0,6 1,13 1,1 3,3 5,3 0,-2 0,-10 1,-12 2,-1 5,1 8,-3 5,-6 1,-11 -4,-14 -2,-1 -5,-4 -7,-5 -3,6 -12,17 -15,22z"/>
  <polygon class="fil9" points="224,492 248,492 249,487 230,486 230,446 224,446 "/>
  <path class="fil11" d="M440 88c0,-1 8,-13 9,-14 6,2 6,6 2,12 -3,5 -7,7 -11,2zm-8 1c1,1 9,6 12,7 7,1 11,-3 13,-7 3,-5 4,-9 0,-14 -1,-2 -8,-7 -11,-9l-14 23z"/>
  <path class="fil10" d="M539 436c-2,-1 -9,-6 -11,-7l-6 9 4 2 2 -3 5 3c1,7 -6,8 -13,2 -2,-1 -4,-3 -4,-7 1,-4 3,-4 5,-6l0 -4c-9,2 -16,16 -3,24 14,9 21,-4 21,-13z"/>
  <path class="fil10" d="M96 439l-3 -5c-7,3 -18,14 -21,9 -4,-6 10,-11 16,-16 0,-2 -2,-3 -3,-5 -2,0 -11,7 -14,8 -5,4 -8,8 -4,15 7,11 14,4 22,-1 3,-2 5,-4 7,-5z"/>
  <path class="fil11" d="M75 194c-1,-1 -11,-5 -12,-6l-4 9c1,1 2,1 4,2l1 -3 6 2c0,9 -8,7 -13,4 -11,-6 -1,-13 -1,-13l-1 -4c-7,1 -14,17 0,24 12,6 21,-2 20,-15z"/>
  <path class="fil10" d="M324 574l0 -13 -10 0 0 4 4 0 0 6c-11,6 -12,-14 -6,-17 3,-2 6,0 8,1l2 -2c1,-1 1,0 1,-1 -5,-6 -22,-5 -21,11 0,6 2,11 6,13 6,2 11,0 16,-2z"/>
  <path class="fil11" d="M517 155l-3 -4 1 -1c0,0 1,0 1,-1l8 -3 -7 9zm-17 -6l3 5 6 -2c1,2 4,5 4,7 -1,1 -3,3 -3,4l3 5c2,-1 15,-18 18,-21 -1,-3 -3,-4 -4,-7 -3,1 -24,8 -27,9z"/>
  <path class="fil11" d="M556 243c-1,-1 -1,-3 -2,-5l12 0 -10 5zm0 -11l-14 -1 2 6 6 1 1 7 -5 3c0,2 1,5 2,6l24 -13c0,-3 -1,-6 -2,-8l-14 -1z"/>
  <path class="fil11" d="M429 63c0,0 0,0 0,0l-3 11 -4 -3 7 -8zm-20 13l6 3c1,-1 1,-1 1,-2 1,-1 2,-1 2,-2 3,0 6,2 7,3l-1 6c2,1 4,2 6,3l5 -28 -7 -3c-1,1 -3,4 -5,5 -1,2 -3,3 -5,5 -1,2 -3,3 -4,5 -1,1 -2,2 -3,3 -1,1 -1,1 -2,2z"/>
  <path class="fil10" d="M207 548c2,-3 4,-7 6,-10l-1 12c-1,0 -4,-1 -5,-2zm-12 7l6 2 3 -5 7 3c0,2 -1,4 0,6l6 2 2 -28 -7 -3c-2,2 -3,4 -5,6 -1,2 -2,3 -4,5 -2,2 -8,10 -8,12z"/>
  <path class="fil11" d="M44 219l11 1c0,2 -1,4 -2,6 -2,-2 -7,-5 -9,-7zm-6 2c6,5 15,12 22,16 1,-1 2,-4 2,-5l-4 -4 2 -7 1 0c0,0 0,0 0,0 1,0 2,0 2,0 1,0 2,0 3,0l2 -6 -28 -1 -2 7z"/>
  <path class="fil11" d="M64 172c2,1 9,2 11,3l-2 5 -9 -8zm-6 1c1,1 1,1 2,2l14 15c1,1 1,1 2,2l1 1 3 -5c-1,-2 -3,-3 -4,-5 1,-2 3,-5 4,-6l6 1 3 -5 -27 -7 -4 7z"/>
  <path class="fil10" d="M463 511c-2,-1 -4,-8 -5,-10 1,1 8,6 9,7 -1,1 -3,3 -4,3zm-11 -12l10 26c1,-1 3,-2 5,-4 -1,-2 -2,-3 -2,-5 2,-2 4,-3 5,-5 2,1 3,3 5,4 2,-1 4,-3 5,-4l-2 -2c-1,-1 -2,-2 -3,-2l-17 -12c-2,0 -5,3 -6,4z"/>
  <path class="fil11" d="M87 137c0,-3 4,-6 8,-3 2,2 1,6 -2,8 -2,-2 -4,-3 -6,-5zm-8 2c2,1 8,6 11,8l10 8c1,-1 3,-3 4,-5 -1,-1 -5,-4 -7,-5 2,-3 5,-5 5,-10 0,-5 -8,-14 -17,-5 -1,2 -5,7 -6,9z"/>
  <path class="fil11" d="M393 46c10,1 4,13 -3,8l3 -8zm-14 18c2,1 5,2 6,2l3 -8c4,1 7,3 11,1 5,-2 10,-11 0,-16 -3,-1 -8,-3 -11,-4l-9 25z"/>
  <path class="fil10" d="M155 526l-4 1c1,5 10,14 17,10 3,-2 5,-6 3,-11 -1,-3 -5,-6 -5,-9 3,-4 8,1 9,4l4 -1c-2,-11 -21,-14 -20,-2 1,5 8,9 6,12 0,3 -4,3 -6,1 -3,-2 -2,-3 -4,-5z"/>
  <path class="fil10" d="M221 558c-1,0 -1,0 -2,0l-1 2c1,3 4,5 9,6 5,2 9,0 11,-3 7,-11 -13,-13 -8,-19 5,-1 7,2 9,4 1,-1 2,-2 3,-3 -1,-3 -6,-6 -12,-6 -5,0 -9,5 -7,10 2,4 9,6 9,9 1,4 -2,4 -5,4 -3,-1 -4,-3 -6,-4z"/>
  <path class="fil10" d="M399 552l-2 4c13,4 22,-6 17,-13 -4,-6 -9,-3 -14,-4 -4,-1 -2,-7 6,-5 1,-2 2,-3 2,-5 -12,-3 -22,8 -14,14 4,4 12,0 14,3 3,4 -2,7 -9,6z"/>
  <path class="fil10" d="M103 490l5 6c2,-1 10,-5 12,-7 5,-2 9,-4 13,-6 -1,-2 -3,-3 -5,-5l-18 11c1,-4 11,-15 11,-19 -2,-1 -3,-3 -4,-4l-14 24z"/>
  <path class="fil10" d="M284 576l16 0 0 -4 -10 -1 0 -6 8 0 0 -5 -8 0 0 -6 10 0 1 -4 -17 -1c0,4 -1,25 0,27z"/>
  <path class="fil11" d="M96 119l14 13c2,2 3,3 4,5 2,0 12,-11 12,-12l-3 -3 -7 7 -5 -4c1,-3 4,-4 5,-6 0,-2 -1,-3 -3,-3l-5 5c-2,0 -3,-2 -5,-4 1,-1 5,-5 7,-7 -1,-1 -2,-2 -3,-3 -1,0 -10,10 -11,12z"/>
  <path class="fil10" d="M116 504c1,0 2,1 3,2 1,1 2,2 3,3 2,1 2,1 3,3 1,1 2,1 4,2 1,-1 1,-1 3,-3 -2,-2 -6,-5 -8,-7 1,-1 3,-2 4,-5 2,1 5,4 7,5 1,0 2,-1 3,-3 -2,-2 -4,-3 -6,-5 1,-2 2,-4 4,-5 1,2 5,4 7,6 1,-1 2,-2 3,-2 -1,-2 -11,-11 -12,-11l-18 20z"/>
  <path class="fil10" d="M325 549l3 26c3,0 14,-1 17,-2l-1 -4c-3,-1 -7,1 -10,1 0,0 0,-1 0,-1l-1 -6 8 -1 0 -4 -8 1c-1,-1 -1,-2 -1,-3 0,-2 0,-2 0,-4 2,0 6,0 8,-1l1 0 0 -4 -16 2z"/>
  <path class="fil11" d="M26 308l26 1 1 -17 -5 0 0 10c-2,1 -5,0 -7,0l0 -8 -4 0 0 8 -7 0 0 -9 -4 -1 0 16z"/>
  <path class="fil11" d="M453 103c2,1 4,3 6,5 2,1 5,4 6,5 1,-1 2,-2 3,-4 -1,-1 -6,-5 -8,-6 1,-1 4,-5 5,-5 2,1 4,3 6,4 1,-1 2,-1 3,-3 -2,-1 -5,-4 -7,-5 1,-1 3,-4 4,-5 3,1 5,4 8,6 1,-1 2,-2 3,-3l-13 -10c-3,3 -6,7 -8,10 -2,2 -8,9 -8,11z"/>
  <path class="fil11" d="M524 187l7 14 4 -1 -4 -9c1,-2 4,-3 6,-3l4 7c1,-1 2,-1 3,-3l-3 -7 5 -3 5 9 4 -2c0,-1 -7,-14 -8,-14l-23 12z"/>
  <path class="fil10" d="M408 526l13 23 14 -7 -2 -4c-3,1 -6,4 -9,5l-3 -6 7 -4c0,-2 -1,-3 -2,-4l-7 4 -3 -6 8 -4c0,-2 0,-4 -1,-5l-15 8z"/>
  <path class="fil1" d="M263 470c9,1 17,0 17,-9 0,-10 -8,-10 -17,-10l0 19z"/>
  <path class="fil11" d="M548 374c-5,1 -8,6 -7,11 1,5 5,9 11,8 12,-3 8,-21 -4,-19z"/>
  <path class="fil11" d="M52 374c-12,3 -8,21 4,19 4,-1 8,-6 7,-11 -1,-5 -6,-9 -11,-8z"/>
  <path class="fil13" d="M296 230c0,2 -1,11 5,14 3,1 6,-3 7,-6 1,-1 1,-3 1,-3 1,-6 -1,-12 -5,-13 -5,-3 -9,4 -8,8z"/>
  <path class="fil10" d="M187 527c1,0 2,1 3,1 0,0 1,1 1,1l2 1 -9 20 6 2 9 -20 6 3c1,-1 2,-3 3,-4l-19 -9 -2 5z"/>
  <path class="fil11" d="M516 174l3 4c2,-1 7,-4 10,-5 2,-2 6,-5 9,-6l3 6 5 -2c-1,-3 -9,-13 -10,-17 -1,0 -3,1 -4,2l3 6c-2,1 -11,6 -14,8l-4 2c-1,1 0,0 -1,2z"/>
  <path class="fil11" d="M569 249c0,1 0,2 0,3 1,3 1,2 1,3l-21 4c-1,1 0,4 0,6 6,1 16,-3 22,-3l1 6 5 0 -3 -20 -5 1z"/>
  <path class="fil11" d="M319 53l16 1 1 -5 -10 0c0,-5 2,-19 1,-22l-6 -1c0,6 -3,23 -2,27z"/>
  <polygon class="fil11" points="48,323 27,324 27,331 54,329 52,313 47,312 "/>
  <path class="fil14" d="M305 375c-4,-2 -4,-3 -8,0 1,-2 0,-15 0,-17 0,3 0,14 0,17 -1,2 -4,7 -1,13 2,5 7,5 10,1 2,-4 2,-12 -1,-14z"/>
  <path class="fil15" d="M233 139c0,4 4,8 9,7 10,-1 8,-16 -2,-15 -4,0 -7,4 -7,8z"/>
  <path class="fil11" d="M401 73l6 2c2,-3 4,-8 6,-12 1,-4 4,-9 5,-12l-6 -3 -11 25z"/>
  <path class="fil11" d="M159 65c1,3 5,9 6,12 2,4 5,8 7,12 2,-1 3,-2 5,-3 -1,-3 -5,-9 -6,-12 -2,-3 -5,-8 -7,-11 -2,0 -3,2 -5,2z"/>
  <path class="fil2" d="M298 42c1,10 12,10 11,-5 -1,-11 -12,-11 -11,5z"/>
  <path class="fil16" d="M324 149c-3,-21 13,-38 31,-40 22,-3 39,13 41,32 2,21 -13,38 -32,40 -21,2 -38,-13 -40,-32zm0 4c5,17 18,29 36,29 9,0 18,-4 24,-9 6,-6 8,-9 12,-19 2,-15 0,-24 -8,-33 -5,-7 -15,-13 -28,-13 -7,0 -12,1 -17,4 -15,8 -22,23 -19,41z"/>
  <path class="fil10" d="M170 542l5 3 13 -24c-1,0 -4,-2 -6,-2l0 0c-2,3 -12,22 -12,23z"/>
  <path class="fil11" d="M339 55c2,1 4,1 6,1l4 -26c-1,-1 -3,-1 -4,-1 -2,0 -2,-1 -2,1 -1,3 -1,6 -2,9 0,3 -2,13 -2,16z"/>
  <path class="fil10" d="M92 478c1,1 3,3 4,5 1,-1 13,-11 15,-13 2,-2 4,-3 5,-5 -1,-1 -2,-4 -4,-4l-20 17z"/>
  <polygon class="fil11" points="551,275 551,281 578,279 578,273 "/>
  <polygon class="fil10" points="365,542 372,567 378,566 371,540 "/>
  <path class="fil17" d="M299 417c-1,2 -3,2 -5,4 1,1 0,0 1,1 0,1 0,1 0,2 0,1 0,2 0,3l16 0c0,-2 0,-4 1,-6 -2,-1 -4,-2 -5,-4 -3,-1 -2,-2 -4,-2 -3,0 -2,1 -4,2z"/>
  <path class="fil2" d="M440 88c4,5 8,3 11,-2 4,-6 4,-10 -2,-12 -1,1 -9,13 -9,14z"/>
  <path class="fil2" d="M390 54c7,5 13,-7 3,-8l-3 8z"/>
  <path class="fil2" d="M87 137c2,2 4,3 6,5 3,-2 4,-6 2,-8 -4,-3 -8,0 -8,3z"/>
  <path class="fil2" d="M46 249l7 2c1,-3 2,-8 -2,-8 -4,-1 -4,3 -5,6z"/>
  <path class="fil2" d="M151 89c0,2 2,5 4,6 2,-1 6,-4 4,-7 -2,-3 -6,-1 -8,1z"/>
  <path class="fil2" d="M145 509c3,2 6,4 8,1 3,-4 -1,-6 -3,-7 -1,1 -4,4 -5,6z"/>
  <path class="fil2" d="M472 489l4 5c3,0 6,-4 3,-7 -2,-3 -6,0 -7,2z"/>
  <path class="fil2" d="M350 550l1 7c4,0 7,-1 6,-5 0,-4 -3,-3 -7,-2z"/>
  <path class="fil2" d="M36 247l6 1c1,-3 2,-6 -2,-7 -3,0 -4,3 -4,6z"/>
  <path class="fil2" d="M145 81c0,1 2,4 3,5 2,-2 6,-3 3,-7 -1,-2 -5,0 -6,2z"/>
  <path class="fil18" d="M463 511c1,0 3,-2 4,-3 -1,-1 -8,-6 -9,-7 1,2 3,9 5,10z"/>
  <path class="fil2" d="M212 58c-1,-1 -6,-7 -7,-9l1 11 6 -2z"/>
  <path class="fil18" d="M207 548c1,1 4,2 5,2l1 -12c-2,3 -4,7 -6,10z"/>
  <path class="fil2" d="M44 219c2,2 7,5 9,7 1,-2 2,-4 2,-6l-11 -1z"/>
  <path class="fil2" d="M73 180l2 -5c-2,-1 -9,-2 -11,-3l9 8z"/>
  <path class="fil2" d="M556 243l10 -5 -12 0c1,2 1,4 2,5z"/>
  <polygon class="fil2" points="573,322 562,318 562,324 "/>
  <polygon class="fil2" points="229,53 234,51 229,41 "/>
  <path class="fil18" d="M496 481c2,-1 2,-2 3,-3 -1,-2 -8,-5 -10,-6l7 9z"/>
  <path class="fil2" d="M524 146l-8 3c0,1 -1,1 -1,1l-1 1 3 4 7 -9z"/>
  <path class="fil2" d="M422 71l4 3 3 -11c0,0 0,0 0,0l-7 8z"/>
 </g>
</svg>
