<?xml version="1.0" encoding="UTF-8"?>
<!DOCTYPE svg PUBLIC "-//W3C//DTD SVG 1.1//EN" "http://www.w3.org/Graphics/SVG/1.1/DTD/svg11.dtd">
<!-- Creator: CorelDRAW X8 -->
<svg xmlns="http://www.w3.org/2000/svg" xml:space="preserve" width="1805px" height="2388px" version="1.1" style="shape-rendering:geometricPrecision; text-rendering:geometricPrecision; image-rendering:optimizeQuality; fill-rule:evenodd; clip-rule:evenodd"
viewBox="0 0 431 571"
 xmlns:xlink="http://www.w3.org/1999/xlink">
 <defs>
  <style type="text/css">
   <![CDATA[
    .fil2 {fill:#284067}
    .fil5 {fill:#7787A0}
    .fil3 {fill:#E5252C}
    .fil4 {fill:#FCFCFD}
    .fil1 {fill:#FDD905}
    .fil0 {fill:#FED806}
   ]]>
  </style>
 </defs>
 <g id="Layer_x0020_1">
  <metadata id="CorelCorpID_0Corel-Layer"/>
  <g id="_3010396381472">
   <path class="fil0" d="M0 203c0,8 0,16 2,23 2,11 5,21 10,31 0,1 0,1 1,2 2,4 5,8 8,12l9 9 6 4c3,2 6,3 9,4 1,1 2,1 4,2 2,0 4,1 7,1 15,3 25,-2 33,0 4,1 6,3 8,7 3,5 3,11 3,16 0,3 -1,9 -1,12 0,5 -1,12 0,18 0,1 0,1 0,3 0,3 1,6 1,9 1,6 2,11 4,16 2,9 8,20 14,27 0,1 1,1 1,2 2,3 4,5 7,7 4,4 8,7 13,10 13,8 26,12 40,15 7,2 17,3 24,3l13 1c2,0 2,0 4,0 1,0 2,0 3,0 9,0 22,-2 31,-4l8 -2c9,-2 17,-5 24,-9 4,-2 7,-4 11,-7 2,-2 5,-4 7,-6 4,-3 7,-7 10,-11 5,-6 9,-14 12,-22 1,-3 2,-7 3,-10l2 -12c1,-7 1,-15 1,-23 0,-11 -3,-28 5,-36 3,-4 8,-4 13,-4 14,0 30,2 43,-6 3,-2 6,-4 9,-6 0,0 0,0 0,-1 2,-1 3,-2 4,-3l4 -5c1,-1 1,-1 2,-2 0,-1 1,-1 1,-2 3,-3 4,-7 7,-11 2,-4 4,-10 6,-15 0,-1 0,-2 1,-3 1,-4 1,-7 2,-11 1,-1 1,-2 1,-4 0,-1 0,-2 0,-4 1,-3 1,-7 1,-10l0 -3c0,-4 0,-8 -1,-12 -1,0 -1,-2 -2,-3 0,0 0,0 0,1 -2,2 -3,5 -5,8 0,1 -1,2 -2,4 -3,7 -8,15 -13,21 -2,2 -4,5 -7,7 -2,2 -5,4 -8,5 -6,4 -12,6 -19,8 -11,4 -23,5 -34,7 -17,3 -25,9 -28,27 -2,16 -1,38 -1,55 0,4 0,8 0,13 0,1 0,1 0,2 0,2 -1,4 -1,6 -3,23 -10,38 -29,49 -5,3 -10,5 -16,7 -8,3 -24,7 -32,7 -2,0 -4,0 -6,0 -3,0 -7,1 -11,1l-21 -1c-8,-1 -15,-3 -23,-5 -2,0 -3,-1 -5,-1 -2,-1 -5,-2 -8,-3 -3,-1 -5,-2 -8,-4 -3,-2 -8,-5 -11,-8 -2,-1 -2,-1 -4,-4 -5,-5 -8,-12 -10,-18 -14,-37 1,-86 -10,-106l-2 -5c-1,-1 -2,-2 -3,-3 -9,-9 -35,-11 -48,-14 -9,-2 -18,-5 -25,-10 -2,-1 -3,-2 -4,-3 -1,0 -2,0 -2,-1l-8 -6c-3,-4 -6,-8 -9,-12 -1,-2 -3,-4 -4,-6 -2,-4 -4,-10 -6,-14 -1,-2 -2,-4 -3,-5 -1,5 -2,8 -2,14z"/>
   <path class="fil1" d="M393 122c0,17 -6,27 -16,39 -1,0 -1,0 -1,1l-5 5c-5,4 -10,8 -15,11 -4,2 -8,5 -12,7l-10 5c-6,3 -13,7 -19,10 -4,3 -8,5 -12,8 -2,1 -4,2 -5,4 -2,1 -4,3 -5,4 -3,4 -6,8 -7,13 -2,5 -3,11 -3,16 0,2 0,3 -1,5l0 14c0,3 -1,5 -1,9 0,2 0,3 0,4l0 7c0,3 0,5 0,8 0,1 -1,37 0,39 0,4 -1,11 0,15 0,2 0,4 0,5l1 10c4,2 4,4 10,5 1,1 3,1 4,1l1 -7c0,-2 0,-3 0,-4 0,-2 0,-19 0,-20 0,-2 0,-4 0,-7l-1 -19c0,-1 0,-2 0,-3 0,-2 0,-2 0,-3 0,-16 -2,-44 7,-56 3,-5 8,-7 15,-8 10,-1 20,-1 30,-3 6,-1 12,-3 18,-5 3,-1 5,-2 8,-3 9,-4 17,-9 24,-15l5 -5c0,0 0,0 0,0l1 -1c21,-23 19,-54 8,-82 -5,-11 -13,-27 -20,-37 -1,-1 -4,-5 -5,-5 1,6 3,12 4,18 1,7 2,13 2,20z"/>
   <path class="fil1" d="M11 163c0,11 2,21 6,29 2,5 5,10 9,14l3 4c4,5 13,11 19,14 1,1 3,2 5,3l8 4c10,4 21,6 32,7 6,1 12,1 18,2 4,1 9,2 12,4 3,2 6,4 7,8 3,4 4,10 4,15 1,6 1,14 1,20 0,1 0,2 0,3 0,13 0,25 0,37 0,1 0,2 0,4 0,1 0,2 0,4 0,1 -1,2 -1,3 0,4 1,14 0,17l0 12c10,0 15,-4 15,-14l0 -98c0,-3 0,-8 -1,-11 0,-4 -1,-9 -2,-13 -1,-4 -4,-9 -6,-13l-6 -6c-4,-3 -11,-8 -16,-11 -1,0 -2,0 -3,-1 0,0 -1,0 -1,-1l-9 -4c-1,-1 -2,-1 -2,-2l-6 -2c0,-1 -1,-1 -2,-2 -1,0 -2,-1 -3,-1 -4,-2 -8,-5 -12,-7 -3,-2 -6,-4 -9,-6 -7,-5 -11,-9 -17,-14 -3,-3 -5,-6 -7,-9 -4,-7 -7,-14 -9,-22 -2,-13 2,-25 4,-37l2 -9c-3,1 -8,10 -9,12 -3,4 -5,7 -7,11l-5 9c-3,7 -6,15 -8,23 -1,4 -2,7 -3,11 -1,4 -1,9 -1,13z"/>
   <path class="fil1" d="M52 109c0,5 0,10 1,15l3 8c2,5 5,9 8,13 0,0 0,0 0,0 2,2 4,4 5,6l1 1c2,2 4,3 5,5 4,3 10,7 14,10l9 6c1,1 1,1 2,1l20 14c5,3 10,6 14,10 3,2 5,4 7,6 3,3 7,8 10,11 4,6 8,15 8,23 1,6 1,14 1,21 0,14 0,27 0,41 0,14 0,28 0,42 1,0 3,-5 3,-6 2,-5 4,-9 8,-12l3 -2c1,-2 1,-2 1,-4 0,-2 1,-3 1,-5 0,-2 0,-3 0,-4 0,-4 0,-7 0,-10l0 -29c0,-2 0,-3 0,-5 0,-1 0,-2 0,-4l0 -14c0,-2 0,-3 0,-4 0,-3 0,-6 0,-9 0,-4 0,-6 0,-10 0,-6 -1,-11 -2,-17 -1,-5 -2,-10 -4,-14 -1,-4 -2,-7 -4,-10 -2,-5 -5,-10 -9,-14l-3 -4c0,0 0,0 -1,-1 -3,-3 -6,-6 -9,-9 -2,-3 -5,-4 -8,-7 0,0 0,0 -1,-1l-9 -7c-1,0 -2,-1 -3,-1l-10 -9c-3,-1 -5,-3 -7,-5 -2,-2 -5,-4 -7,-6 0,-1 0,-1 -1,-2 -1,0 -1,-1 -2,-2 0,0 -1,-1 -1,-1 -8,-10 -13,-22 -13,-36 0,-5 0,-9 1,-14 0,-6 2,-12 3,-18 0,-2 2,-7 2,-9 -5,3 -6,7 -9,11l-8 12c-1,2 -2,3 -3,4 -2,4 -4,8 -6,11 -5,10 -8,20 -10,31 0,1 0,2 0,3z"/>
   <path class="fil0" d="M350 78c0,6 -1,11 -3,16 -1,5 -4,10 -7,14 -1,1 -1,2 -2,3l-6 7c-2,2 -4,4 -6,5l-13 11c-1,1 -1,2 -2,2 -1,1 -2,2 -3,2 -1,1 -2,1 -2,2 -5,3 -13,9 -17,13 -1,1 -3,3 -5,5 -3,2 -6,5 -8,8l-3 3c-4,5 -7,11 -10,17 -3,6 -5,13 -6,20 -1,2 -1,5 -1,8 0,1 -1,3 -1,4l0 13c0,7 -1,63 0,67 0,3 0,6 0,8 1,4 0,12 2,15 2,3 4,5 6,7 1,1 2,3 3,5 1,2 2,4 4,6 0,1 0,1 0,1 1,0 0,0 1,0l0 -72c0,-4 0,-7 0,-11 0,-12 -1,-22 4,-33 2,-5 6,-10 9,-14 1,-1 1,-1 2,-1 2,-4 6,-6 9,-9 2,-2 5,-4 7,-6 7,-5 14,-10 20,-14l5 -3c8,-6 20,-13 28,-20l4 -3c3,-4 6,-7 8,-10 2,-2 3,-4 5,-7 0,-1 1,-2 1,-3 10,-18 6,-38 -3,-56l-9 -17c-1,-2 -2,-3 -3,-4 -3,-6 -7,-11 -11,-16 -1,-1 -1,-1 -2,-2 0,0 0,0 -1,-1 0,0 0,0 -1,0 1,2 2,7 2,10 2,9 5,21 5,30z"/>
   <path class="fil1" d="M99 73c0,10 1,16 6,24 1,1 1,1 1,1 2,3 4,6 6,8l1 1c3,4 12,11 15,13l9 7c1,1 2,1 3,2 1,1 2,1 3,2 1,1 2,1 3,2 0,1 1,1 1,1 3,2 8,6 10,8l8 8c7,7 13,15 17,24 2,4 3,8 4,11 0,3 1,6 1,9 1,7 1,32 1,41l0 61c0,7 0,14 0,21 2,-1 8,-2 10,-2 0,-2 0,-3 0,-5 0,-6 0,-11 0,-17l0 -5c0,-19 1,-39 1,-59 0,-3 0,-6 0,-10 0,-4 0,-7 0,-11 0,-4 1,-7 1,-11 0,-3 -1,-7 0,-10 0,-3 0,-15 0,-19 0,-3 0,-5 0,-8 0,-2 0,-3 0,-5 0,-4 -1,-11 -2,-15 -1,-6 -3,-14 -6,-19 -2,-4 -4,-7 -7,-11 -2,-2 -4,-4 -5,-5l-5 -4c-5,-5 -14,-11 -20,-15 -3,-3 -7,-5 -11,-8 -1,-1 -3,-3 -4,-4l-3 -2c-8,-9 -12,-16 -12,-29 0,-6 1,-11 2,-16 1,-6 2,-10 3,-15 -1,0 -4,4 -5,5 -3,3 -5,6 -6,9l-6 9c-6,11 -14,25 -14,38z"/>
   <path class="fil0" d="M307 43c0,10 -4,19 -11,26 0,1 -1,1 -1,2l-7 6c-5,3 -7,5 -11,8l-4 2c-5,4 -10,7 -15,12 -1,0 -1,0 -2,1l-7 6c-8,8 -14,20 -16,31 -3,19 -2,28 -2,49 0,20 1,39 1,59 0,2 0,3 0,5 0,4 0,7 0,11 0,4 0,7 0,11l0 19c0,1 0,1 0,2 1,4 0,20 1,22l10 2 0 -103c0,-4 0,-7 0,-10 0,-2 1,-3 1,-5 0,-6 2,-16 3,-22 1,-1 1,-3 2,-4l1 -3c2,-3 4,-8 6,-10 4,-6 8,-9 13,-13 0,-1 1,-2 2,-3 1,0 1,0 2,-1 2,-2 7,-6 10,-8 6,-4 15,-10 21,-15l5 -5 9 -9c3,-3 6,-6 8,-10 0,-1 1,-1 1,-2 7,-15 5,-28 -1,-44 -3,-6 -5,-9 -8,-15 -3,-4 -8,-14 -12,-18 -1,-1 -4,-5 -6,-5l2 7c2,6 5,18 5,24z"/>
   <path class="fil2" d="M120 544c3,0 10,-1 12,-2 2,-1 3,-2 4,-4 2,-5 1,-16 1,-22l-1 -11 1 -14c0,-1 0,-3 0,-4 1,0 5,6 6,7l5 8c0,1 0,1 1,2l14 25c5,8 9,16 20,16 7,0 6,0 6,-6 0,-4 0,-8 0,-12 0,-2 -1,-3 -1,-6l0 -65c-11,0 -18,3 -18,15 0,1 0,2 0,4l1 9c0,10 1,19 0,29 -1,0 -1,-1 -2,-1 -3,-4 -4,-5 -7,-10 -4,-8 -7,-14 -11,-22l-2 -4c-1,-2 -3,-6 -5,-8 -2,-3 -4,-5 -7,-7 -5,-4 -10,-5 -17,-5l0 88z"/>
   <path class="fil2" d="M196 457l0 87c4,0 10,-1 13,-3 5,-3 4,-10 4,-16 0,-5 0,-11 0,-17l0 -15c0,-2 0,-4 0,-6 2,1 9,11 10,13l9 16c0,0 0,1 1,2l1 2c1,2 1,3 2,5 1,0 1,1 1,2 2,3 5,7 8,10 1,1 2,2 3,3 5,3 10,5 16,5 1,0 1,-1 1,-2 -1,-7 0,-38 0,-41 -1,-3 -1,-41 -1,-46 -19,0 -16,8 -16,25 0,4 0,7 0,11 0,3 0,7 0,11l-1 5c0,2 0,4 0,5 -1,0 -5,-6 -6,-8l-27 -44c0,-1 -1,-1 -1,-2 -2,-1 -3,-2 -5,-3 -3,-1 -7,0 -11,0 0,0 -1,0 -1,1z"/>
   <path class="fil2" d="M60 508c0,-6 0,-16 0,-20 0,-1 0,-3 0,-4 0,-1 0,-2 0,-3 0,-5 1,-9 0,-13 -1,-7 -5,-11 -13,-11 -1,0 -1,0 -3,0l-3 0 -1 34c0,3 0,4 0,6 0,7 0,10 1,17 0,6 1,10 3,14 4,8 11,14 20,17 9,3 21,2 30,-2 5,-3 9,-6 11,-11 3,-4 5,-10 6,-16 0,-4 1,-7 1,-12 0,-1 0,-2 0,-2l0 -6c0,-3 0,-6 0,-10 0,-5 -1,-14 -1,-20 0,-3 0,-7 0,-10 -8,0 -17,1 -20,9 0,2 -1,6 -1,8l1 32c0,3 0,10 -1,12 -1,3 -1,5 -3,7 -2,3 -4,5 -8,6 -6,1 -13,-1 -16,-7 -2,-4 -3,-10 -3,-15z"/>
   <path class="fil2" d="M274 458l0 85c1,0 8,2 14,2l17 0c1,0 1,-1 3,-1 6,0 13,0 17,-5 1,-2 2,-3 2,-5 1,-1 1,-4 1,-5 -11,0 -23,-1 -34,-1l0 -22 5 0c4,-1 11,0 15,-1 5,-2 7,-10 7,-15l-27 0 0 -17c0,-1 1,-1 3,-1 1,0 1,0 2,0 2,0 2,0 3,0 11,-1 21,1 25,-10 0,-1 1,-4 1,-6l-7 0c-1,0 -3,0 -4,0 -6,-1 -15,-1 -22,-1 -1,0 -2,1 -3,1 -2,0 -4,-1 -6,0 -3,0 -7,0 -11,1 0,0 -1,0 -1,1z"/>
   <path class="fil2" d="M333 483c0,12 9,17 18,20 1,0 2,1 3,1 8,2 18,7 18,15 0,4 0,3 -3,6 -3,3 -9,4 -13,4l-7 0c-1,0 -1,0 -2,0 -5,0 -11,0 -14,5 -1,1 -2,5 -2,7 1,0 3,1 3,2 5,2 9,2 14,3 6,1 13,0 19,-2 10,-3 20,-11 24,-21 3,-8 0,-19 -6,-24 -2,-1 -5,-3 -7,-4 -2,-1 -5,-2 -8,-3 -1,-1 -2,-1 -3,-2 -2,0 -3,-1 -4,-2 -5,-2 -10,-6 -10,-12 0,-7 14,-6 19,-6 5,0 8,0 11,-2 3,-2 5,-6 5,-8 -3,-2 -3,-3 -7,-4 -8,-2 -18,-2 -26,1 -10,3 -18,9 -21,19 0,2 -1,5 -1,7z"/>
   <path class="fil3" d="M204 51c0,-10 2,-12 7,-19l3 -6c3,2 7,6 9,10 3,6 3,9 4,15l7 4c0,0 0,0 0,0 1,0 0,0 0,0 -7,4 -7,18 -19,18 -6,-1 -9,-5 -11,-8 -2,-3 -5,-8 -8,-10 1,0 1,-1 2,-1 1,-1 5,-2 6,-3zm-8 -6l-13 -2c0,2 8,11 10,14l5 8c2,4 6,8 10,10 7,2 14,1 19,-3 6,-5 9,-13 14,-19 1,-2 6,-8 7,-10l-7 1c-2,1 -4,1 -6,1 0,-10 -1,-17 -6,-25 -2,-4 -7,-10 -10,-15 -1,-2 -1,-3 -2,-5 -2,1 -3,2 -5,4 -4,4 -7,9 -10,15 -3,7 -6,17 -6,26z"/>
   <path class="fil4" d="M204 51c-1,1 -5,2 -6,3 -1,0 -1,1 -2,1 3,2 6,7 8,10 2,3 5,7 11,8 12,0 12,-14 19,-18 0,0 1,0 0,0 0,0 0,0 0,0l-7 -4c-1,-6 -1,-9 -4,-15 -2,-4 -6,-8 -9,-10l-3 6c-5,7 -7,9 -7,19z"/>
   <path class="fil0" d="M198 95c4,2 9,3 13,4 5,1 13,1 17,-1 1,-1 2,-1 3,-2 2,-2 1,-2 2,-3 -4,-6 -12,-7 -19,-6 -6,0 -12,-1 -15,6 -1,1 -1,1 -1,2z"/>
   <path class="fil2" d="M303 570l3 0 0 -10c0,0 0,0 0,0l0 1c0,1 0,1 0,1l2 8c4,0 3,1 4,-1l1 -7c0,-1 0,-1 1,-2l0 8c0,3 -1,2 3,2l0 -14c-6,0 -5,-1 -5,2 0,1 -1,1 -1,2 0,2 -1,3 -1,5l-2 -7c-1,-3 0,-2 -5,-2l0 14z"/>
   <path class="fil2" d="M254 562l-4 0 0 -4 4 0c1,0 2,1 2,2 0,1 -1,2 -2,2zm-7 8l3 0 0 -6c2,0 3,0 3,1 1,1 1,1 2,2 0,1 1,2 2,3l3 0c0,-2 -4,-6 -4,-6 3,0 4,-5 2,-7 -2,-2 -8,-1 -11,-1l0 14z"/>
   <path class="fil2" d="M112 562l-4 0 0 -4c4,0 6,0 6,2 0,1 -1,2 -2,2zm-7 8l3 0 0 -6c3,0 3,0 5,3 0,1 1,2 2,3l3 0c0,-1 -2,-4 -3,-5 0,0 -1,-1 -1,-1 3,-1 3,-1 3,-5 0,-1 -1,-2 -1,-2 -2,-2 -7,-1 -11,-1l0 14z"/>
   <path class="fil2" d="M55 570l3 0 0 -9c1,1 4,6 5,7 0,0 1,2 1,2l3 0 0 -14 -3 0 0 9c0,-1 -5,-9 -5,-9l-4 0 0 14z"/>
   <path class="fil2" d="M343 562l-5 0 0 -4c5,0 6,0 6,2 0,1 -1,2 -1,2zm-7 8l2 0 0 -6c3,0 3,0 5,3 0,1 2,2 2,3l3 0c0,-1 0,-1 0,-1 -3,-5 -3,-4 -4,-5 3,-1 3,-2 3,-5 0,-2 -2,-3 -4,-3l-7 0 0 14z"/>
   <path class="fil2" d="M216 563c0,4 3,8 7,8 3,0 7,-2 7,-3l0 -6 -6 0 0 3 3 0 0 1c0,2 -7,3 -7,-2 0,-2 -1,-3 1,-5 1,-1 5,-2 6,1l3 0c-1,-4 -4,-5 -8,-5 -3,0 -6,4 -6,8z"/>
   <path class="fil2" d="M381 562c0,3 0,5 2,7 1,1 3,1 5,2l0 0c3,-1 6,-2 6,-3l0 -6 -6 0 0 3 3 0 0 1c0,1 -4,3 -6,0 -1,-1 -1,-5 0,-7 1,-1 2,-1 4,-1 1,0 2,1 2,2 1,0 2,0 3,0 0,-3 -3,-5 -5,-5 -3,0 -4,0 -6,2 -1,2 -2,3 -2,5z"/>
   <path class="fil2" d="M187 570l3 0 0 -9 3 5c1,1 1,1 2,2 0,1 0,1 0,1 1,2 1,1 4,1l0 -14 -3 0 0 9 -4 -7c0,0 -1,-2 -1,-2l-4 0 0 14z"/>
   <path class="fil2" d="M366 570l3 0 0 -9c0,1 4,7 5,8 1,2 0,1 3,1l0 -14 -2 0 0 9c-1,-1 -4,-6 -5,-7 0,-1 0,-1 0,-1 -1,-2 0,-1 -4,-1l0 14z"/>
   <path class="fil2" d="M289 570c0,0 0,0 0,0l10 0c1,0 1,-2 1,-2l-8 0 0 -4 7 0c0,-4 1,-3 -7,-3l0 -3 7 0 0 -2 -10 0 0 14z"/>
   <path class="fil2" d="M203 570l11 0 0 -2 -8 0 0 -4 7 0 0 -3 -7 0 0 -3 7 0c1,0 1,0 1,-2l-11 0 0 14z"/>
   <path class="fil2" d="M126 568c-1,0 -3,0 -3,-3 -2,0 -2,0 -3,0 0,3 2,6 5,6l2 0c3,0 6,-4 4,-7 -1,-4 -8,-2 -8,-5 0,-1 4,-2 5,1 1,0 3,0 3,-1 0,-5 -9,-5 -10,-1 -2,7 8,5 8,8 -1,1 -2,2 -3,2z"/>
   <path class="fil2" d="M167 559c0,6 9,5 9,7 0,3 -5,2 -5,1 -2,-2 1,-2 -4,-2 0,4 2,5 5,6l2 0c3,-1 5,-2 5,-5 0,-6 -8,-4 -8,-7 0,-1 1,-1 2,-1 3,0 2,2 3,2 2,0 2,0 2,-1 0,-5 -11,-5 -11,0z"/>
   <path class="fil2" d="M274 559c0,1 0,2 2,3 2,3 7,2 7,4 0,2 -6,3 -6,-1 -2,0 -2,0 -3,0 1,5 2,6 7,6 1,0 3,-1 4,-2 1,-2 1,-3 0,-5 -2,-4 -8,-2 -8,-5 0,-1 5,-2 5,1 2,0 2,0 3,0 0,-7 -11,-5 -11,-1z"/>
   <path class="fil2" d="M233 570l11 0 0 -2 -8 0 0 -4 8 0c0,-4 1,-3 -8,-3l0 -3 8 0 0 -2 -11 0 0 14z"/>
   <path class="fil2" d="M91 570l11 0 0 -2 -8 0 0 -4 7 0 0 -3 -7 0 0 -3c9,0 8,1 8,-2l-11 0 0 14z"/>
   <path class="fil2" d="M326 559l2 5 -4 0 2 -4c0,0 0,-1 0,-1zm-7 11l3 0c0,-1 1,-2 1,-3l6 0c0,1 1,2 1,3l3 0 -4 -11c0,-1 -1,-2 -1,-3l-4 0c0,1 -2,5 -2,7 -1,1 -3,6 -3,7z"/>
   <path class="fil2" d="M40 564c0,6 3,7 7,7 1,0 2,-1 3,-1 2,-2 2,-5 2,-9 0,-6 1,-5 -3,-5l0 8c0,3 -1,4 -3,4 -2,0 -3,-1 -3,-3l0 -9 -3 0 0 8z"/>
   <path class="fil2" d="M158 559c0,1 0,0 0,1l2 4 -4 0 2 -5zm-7 11l3 0c2,-4 -1,-3 7,-3 1,0 0,2 1,3l3 0c0,-1 0,-2 -1,-3l-3 -8c0,-1 -1,-2 -1,-3l-3 0 -6 14z"/>
   <path class="fil2" d="M357 559c0,1 0,2 0,3 1,1 1,2 1,2l-3 0c1,-2 1,-4 2,-5zm-8 11l3 0c1,0 2,-2 2,-3 6,0 5,-1 6,1 0,1 0,2 1,2l3 0c0,-1 -4,-9 -4,-11 -1,-1 -2,-2 -2,-3l-3 0 -6 14z"/>
   <path class="fil2" d="M81 570c3,0 3,1 3,-1 1,-1 1,-1 1,-2 1,-1 1,-2 1,-4 1,-1 3,-6 3,-7l-3 0c-1,2 -3,7 -3,10l-2 -5c-1,-1 -2,-4 -2,-5l-3 0c0,1 0,2 1,3l3 10c0,0 0,1 1,1z"/>
   <path class="fil2" d="M140 558c0,1 1,0 4,0l0 12 3 0 0 -12 4 0 0 -2 -11 0 0 2z"/>
   <polygon class="fil2" points="71,570 74,570 74,556 71,556 "/>
   <polygon class="fil2" points="135,570 138,570 138,556 135,556 "/>
   <polygon class="fil2" points="263,570 265,570 265,556 263,556 "/>
   <path class="fil5" d="M91 570c1,0 2,0 3,0l8 0 0 -2 -8 0 8 0 0 2 -11 0z"/>
  </g>
 </g>
</svg>
